<svg xmlns="http://www.w3.org/2000/svg" width="20" height="20" viewBox="0 0 20 20">
  <g id="Group_12" data-name="Group 12" transform="translate(-3364 -2972)">
    <rect id="Rectangle_31" data-name="Rectangle 31" width="20" height="20" transform="translate(3364 2972)" fill="rgba(255,255,255,0)"/>
    <path id="Path_2" data-name="Path 2" d="M2.129,10.622a7.286,7.286,0,0,0,.577,2.892A7.522,7.522,0,0,0,6.684,17.5a7.258,7.258,0,0,0,2.888.577,7.141,7.141,0,0,0,2.247-.35,7.489,7.489,0,0,0,1.961-.977l4.389,4.4a1.106,1.106,0,0,0,.411.262,1.4,1.4,0,0,0,.478.084,1.213,1.213,0,0,0,.63-.162,1.174,1.174,0,0,0,.431-.44,1.282,1.282,0,0,0-.19-1.5l-4.358-4.375a7.4,7.4,0,0,0,1.069-2.036,7.187,7.187,0,0,0,.384-2.352,7.282,7.282,0,0,0-.578-2.892,7.45,7.45,0,0,0-1.6-2.374,7.6,7.6,0,0,0-2.374-1.6,7.231,7.231,0,0,0-2.9-.582,7.211,7.211,0,0,0-2.888.582,7.6,7.6,0,0,0-2.374,1.6,7.444,7.444,0,0,0-1.6,2.374A7.287,7.287,0,0,0,2.129,10.622Zm1.776,0a5.538,5.538,0,0,1,.44-2.2A5.668,5.668,0,0,1,5.568,6.613,5.765,5.765,0,0,1,7.374,5.395a5.729,5.729,0,0,1,4.4,0A5.712,5.712,0,0,1,14.8,8.419a5.735,5.735,0,0,1,0,4.405,5.712,5.712,0,0,1-3.025,3.024,5.724,5.724,0,0,1-4.4,0A5.774,5.774,0,0,1,5.568,14.63a5.662,5.662,0,0,1-1.223-1.806A5.538,5.538,0,0,1,3.9,10.622Z" transform="translate(3361.871 2968.83)" fill="#8e8e92"/>
  </g>
</svg>
